<svg xmlns="http://www.w3.org/2000/svg" viewBox="0 0 512.009 512.009"><linearGradient id="A" gradientUnits="userSpaceOnUse" x1="256.567" y1="367.19" x2="256.567" y2="143.679"><stop offset="0" stop-color="#4dc4ff"/><stop offset="1" stop-color="#4de1ff"/></linearGradient><path d="M144.812 143.694h223.511v223.511H144.812z" fill="url(#A)"/><path d="M379.611 132.406c-2.985-2.97-7.089-4.678-11.287-4.678H144.812a16.12 16.12 0 0 0-11.303 4.678c-2.985 2.969-4.662 7.088-4.662 11.287v223.511c0 4.199 1.708 8.318 4.678 11.287s7.073 4.678 11.287 4.678h223.511c4.199 0 8.318-1.708 11.287-4.678a16.09 16.09 0 0 0 4.678-11.287v-223.51a16.09 16.09 0 0 0-4.677-11.288zM352.358 351.24H160.777V159.659h191.581V351.24zM510.78 9.89c-.798-1.932-1.964-3.72-3.464-5.205-1.485-1.485-3.273-2.666-5.205-3.464a15.97 15.97 0 0 0-6.083-1.213h-95.79c-8.813 0-15.965 7.152-15.965 15.965s7.152 15.965 15.965 15.965h57.251l-69.672 69.672c-6.242 6.242-6.242 16.348 0 22.575 6.242 6.242 16.348 6.242 22.575 0l69.672-69.672v57.251c0 8.813 7.152 15.965 15.965 15.965s15.965-7.152 15.965-15.965v-95.79c.015-2.076-.416-4.136-1.214-6.084zm-14.736 374.413c-8.813 0-15.965 7.152-15.965 15.965v57.251l-69.672-69.672c-6.242-6.242-16.348-6.242-22.575 0-6.242 6.242-6.242 16.348 0 22.575l68.522 68.538h-56.101c-8.813 0-15.965 7.152-15.965 15.965s7.152 15.965 15.965 15.965h89.963c5.731 2.251 12.485 1.086 17.115-3.544a15.91 15.91 0 0 0 4.678-11.271v-95.806c0-8.813-7.152-15.966-15.965-15.966zM54.498 31.938h57.251c8.813 0 15.965-7.152 15.965-15.965S120.562.008 111.749.008h-95.79c-4.087 0-8.174 1.565-11.303 4.678C.025 9.316-1.14 16.085 1.111 21.8v89.963c0 8.813 6.578 15.965 15.39 15.965s16.252-7.152 16.252-15.965h.303V55.646l68.538 68.538c6.242 6.242 16.348 6.242 22.575 0 6.242-6.242 6.242-16.348 0-22.575L54.498 31.938zm69.671 355.91c-6.242-6.242-16.348-6.242-22.575 0l-68.538 68.538v-56.117c0-8.813-7.711-15.965-16.54-15.965-8.813 0-15.678 7.152-15.678 15.965h.287v89.963c-2.251 5.731-1.086 12.485 3.544 17.115s11.383 5.779 17.115 3.544h89.963c8.813 0 15.965-7.152 15.965-15.965s-7.152-15.965-15.965-15.965H55.631l68.538-68.538a15.98 15.98 0 0 0 0-22.575z" fill="#297bcc"/></svg>